<svg xmlns="http://www.w3.org/2000/svg" width="1080" height="1080" viewBox="0 0 1080 1080"><defs><linearGradient id="bg" x1="0" y1="0" x2="1" y2="1"><stop stop-color="#071428"/><stop offset="1" stop-color="#0B315C"/></linearGradient><linearGradient id="a" x1="0" y1="0" x2="1" y2="1"><stop stop-color="#075DFF"/><stop offset="1" stop-color="#12DFF3"/></linearGradient></defs><rect width="1080" height="1080" fill="url(#bg)"/><circle cx="110" cy="118" r="34" fill="url(#a)"/><text x="98" y="132" font-family="Arial,sans-serif" font-size="42" font-weight="700" fill="#fff">N</text><text x="165" y="105" font-family="Arial,sans-serif" font-size="32" font-weight="700" fill="#F7FBFF">NELOY</text><text x="165" y="139" font-family="Arial,sans-serif" font-size="18" letter-spacing="3" fill="#AFC6DC">DIGITAL SOLUTIONS</text><rect x="760" y="78" width="250" height="46" rx="23" fill="#0D355B" stroke="#286B94"/><text x="885" y="107" text-anchor="middle" font-family="Arial,sans-serif" font-size="14" font-weight="700" fill="#2CDBFF">SMART DIGITAL SOLUTIONS</text><text x="70" y="245" font-family="Arial,sans-serif" font-size="22" font-weight="700" letter-spacing="2" fill="#168CFF">WEBSITE DESIGN</text><text x="70" y="325" font-family="Arial,sans-serif" font-size="56" font-weight="700" fill="#F7FBFF">Your Website Should Work</text><text x="70" y="394" font-family="Arial,sans-serif" font-size="56" font-weight="700" fill="#F7FBFF">as Hard as Your Business</text><text x="70" y="466" font-family="Arial,sans-serif" font-size="25" fill="#AEC5DB">Responsive, professional websites built around your goals,</text><text x="70" y="504" font-family="Arial,sans-serif" font-size="25" fill="#AEC5DB">functionality and customer journey.</text><rect x="70" y="620" width="540" height="195" rx="28" fill="#0A2440" stroke="#275E82"/><circle cx="110" cy="669" r="14" fill="#103B5A" stroke="#168CFF"/><text x="140" y="677" font-family="Arial,sans-serif" font-size="24" fill="#fff">Responsive layout</text><circle cx="110" cy="722" r="14" fill="#103B5A" stroke="#168CFF"/><text x="140" y="730" font-family="Arial,sans-serif" font-size="24" fill="#fff">Clear service structure</text><circle cx="110" cy="775" r="14" fill="#103B5A" stroke="#168CFF"/><text x="140" y="783" font-family="Arial,sans-serif" font-size="24" fill="#fff">Built around your goals</text><rect x="680" y="585" width="300" height="215" rx="24" fill="#0B2746" stroke="#168CFF" stroke-width="3"/><rect x="708" y="620" width="244" height="136" rx="8" fill="#071428"/><rect x="730" y="643" width="195" height="28" rx="14" fill="#168CFF"/><rect x="730" y="690" width="150" height="12" rx="6" fill="#7694AF"/><rect x="730" y="716" width="118" height="12" rx="6" fill="#7694AF"/><path d="M660 814 H1000 L950 850 H705 Z" fill="#25445F"/><rect x="640" y="690" width="78" height="168" rx="18" fill="#091C32" stroke="#2CDBFF" stroke-width="3"/><rect x="652" y="720" width="54" height="105" fill="#0E355D"/><rect x="70" y="918" width="940" height="82" rx="30" fill="#0A223D" stroke="#2D678E"/><text x="102" y="969" font-family="Arial,sans-serif" font-size="24" font-weight="700" fill="#fff">Tell us what you need for your website</text><text x="945" y="970" font-family="Arial,sans-serif" font-size="34" fill="#2CDBFF">→</text><text x="70" y="1040" font-family="Arial,sans-serif" font-size="18" font-weight="700" fill="#AFC6DC">NELOY DIGITAL SOLUTIONS</text></svg>