<svg xmlns="http://www.w3.org/2000/svg" width="1080" height="1080" viewBox="0 0 1080 1080"><defs><linearGradient id="bg" x1="0" y1="0" x2="1" y2="1"><stop stop-color="#071428"/><stop offset="1" stop-color="#0B315C"/></linearGradient><linearGradient id="a" x1="0" y1="0" x2="1" y2="1"><stop stop-color="#FF5671"/><stop offset="1" stop-color="#2CDBFF"/></linearGradient></defs><rect width="1080" height="1080" fill="url(#bg)"/><circle cx="110" cy="118" r="34" fill="url(#a)"/><text x="98" y="132" font-family="Arial,sans-serif" font-size="42" font-weight="700" fill="#fff">N</text><text x="165" y="105" font-family="Arial,sans-serif" font-size="32" font-weight="700" fill="#F7FBFF">NELOY</text><text x="165" y="139" font-family="Arial,sans-serif" font-size="18" letter-spacing="3" fill="#AFC6DC">DIGITAL SOLUTIONS</text><rect x="760" y="78" width="250" height="46" rx="23" fill="#0D355B" stroke="#286B94"/><text x="885" y="107" text-anchor="middle" font-family="Arial,sans-serif" font-size="14" font-weight="700" fill="#2CDBFF">SMART DIGITAL SOLUTIONS</text><text x="70" y="250" font-family="Arial,sans-serif" font-size="22" font-weight="700" letter-spacing="2" fill="#FF7188">VIDEO EDITING</text><text x="70" y="330" font-family="Arial,sans-serif" font-size="64" font-weight="700" fill="#F7FBFF">Videos That Catch</text><text x="70" y="406" font-family="Arial,sans-serif" font-size="64" font-weight="700" fill="#F7FBFF">Attention</text><text x="70" y="477" font-family="Arial,sans-serif" font-size="25" fill="#AEC5DB">Reels, promos and social content with clean pacing,</text><text x="70" y="515" font-family="Arial,sans-serif" font-size="25" fill="#AEC5DB">captions and a professional finish.</text><rect x="70" y="620" width="540" height="195" rx="28" fill="#0A2440" stroke="#275E82"/><circle cx="110" cy="669" r="14" fill="#1B3150" stroke="#FF7188"/><text x="140" y="677" font-family="Arial,sans-serif" font-size="24" fill="#fff">Reels &amp; promos</text><circle cx="110" cy="722" r="14" fill="#1B3150" stroke="#FF7188"/><text x="140" y="730" font-family="Arial,sans-serif" font-size="24" fill="#fff">Short demo first</text><circle cx="110" cy="775" r="14" fill="#1B3150" stroke="#FF7188"/><text x="140" y="783" font-family="Arial,sans-serif" font-size="24" fill="#fff">Full edit after approval</text><rect x="690" y="590" width="290" height="215" rx="30" fill="#0D2746" stroke="#FF7188" stroke-width="3"/><circle cx="835" cy="685" r="64" fill="#FF567122" stroke="#FF7188" stroke-width="4"/><path d="M815 645 L815 725 L875 685 Z" fill="#fff"/><rect x="720" y="770" width="230" height="18" rx="9" fill="#36516B"/><rect x="720" y="770" width="148" height="18" rx="9" fill="#FF5671"/><rect x="70" y="918" width="940" height="82" rx="30" fill="#0A223D" stroke="#2D678E"/><text x="102" y="969" font-family="Arial,sans-serif" font-size="24" font-weight="700" fill="#fff">Send us your video-editing requirements</text><text x="945" y="970" font-family="Arial,sans-serif" font-size="34" fill="#2CDBFF">→</text><text x="70" y="1040" font-family="Arial,sans-serif" font-size="18" font-weight="700" fill="#AFC6DC">NELOY DIGITAL SOLUTIONS</text></svg>